PathFileType	4	(X/Y/Z)	C:/Users/beibeiliu/ov580/test_trc/User3\sequence.36_training_dense_right.trc
DataRate	CameraRate	NumFrames	NumMarkers	Units	OrigDataRate	OrigDataStartFrame	OrigNumFrames
120	120	16	19	mm	120	158	252
Frame#	Time	ThumbCMC			ThumbMCP			ThumbIP			ThumbTip			IndexMCP			IndexPIP			IndexTip			MiddleMCP			MiddlePIP			MiddleTip			RingMCP			RingPIP			RingTip			PinkyMCP			PinkyPIP			PinkyTip			BackHand1			BackHand2			BackHand3	
		X0	Y0	Z0	X1	Y1	Z1	X2	Y2	Z2	X3	Y3	Z3	X4	Y4	Z4	X5	Y5	Z5	X6	Y6	Z6	X7	Y7	Z7	X8	Y8	Z8	X9	Y9	Z9	X10	Y10	Z10	X11	Y11	Z11	X12	Y12	Z12	X13	Y13	Z13	X14	Y14	Z14	X15	Y15	Z15	X16	Y16	Z16	X17	Y17	Z17	X18	Y18	Z18	
157	1.30833	78.3001	-35.774	66.1553	63.9758	-37.0837	33.0447	55.4842	-40.4169	4.12028	62.9827	-51.1057	-17.2527	105.203	-9.7218	-3.62098	94.418	-13.0248	-36.8263	79.5546	-42.0925	-44.0822	126.865	-17.9736	-15.4215	120.492	-32.6453	-44.1287	100.685	-64.7197	-48.1754	135.263	-46.8691	-9.50618	118.25	-66.9992	-24.7886	101.87	-83.7676	1.21359	141.933	-66.1316	1.8627	119.399	-82.0015	-1.56055	107.705	-84.1125	25.6911	144.374	-32.689	48.0224	142.543	-37.8144	77.2001	112.808	-18.1377	61.8527	
158	1.31667	80.0817	-35.0995	60.4079	62.612	-38.6086	36.3501	56.4186	-42.6987	5.2248	59.564	-51.9446	-19.9023	106.828	-9.93473	-7.2356	95.6479	-13.5753	-36.1033	82.593	-43.3232	-46.7292	128.668	-20.9734	-12.8195	121.059	-31.6039	-43.8716	101.796	-64.6994	-49.7608	133.965	-46.304	-9.95524	118.157	-67.2784	-24.4928	97.1196	-82.4665	1.53996	142.623	-67.7142	1.48791	117.663	-83.3899	-0.515606	109.185	-86.9901	27.1817	145.352	-32.6921	42.3276	141.414	-39.4852	73.4495	112.934	-18.4675	60.0611	
159	1.325	78.7797	-35.9024	63.9283	67.1231	-40.4236	34.2876	56.0485	-43.133	8.77724	57.1424	-51.3013	-19.6882	103.889	-11.4696	-8.93327	97.1761	-16.0894	-36.641	79.4267	-42.5013	-50.0694	126.434	-22.3745	-12.2068	119.296	-36.4616	-47.2912	101.722	-62.8463	-54.3906	131.356	-47.2188	-9.22484	116.527	-71.2764	-26.0344	99.7164	-88.165	-4.02529	140.32	-66.4696	3.12581	119.041	-88.104	-1.16141	105.075	-85.27	24.3543	145.682	-36.4787	45.518	145.382	-42.7862	72.1911	118.232	-20.6648	57.5892	
160	1.33333	80.8431	-37.9542	58.3956	59.7796	-40.5811	34.8933	47.549	-42.0834	7.82928	46.7212	-49.6166	-18.6826	100.291	-13.8665	-10.1442	94.7912	-17.9779	-39.2893	80.0711	-42.9065	-58.9242	122.556	-23.4842	-18.4955	115.854	-33.7905	-49.5341	103.23	-60.4255	-63.1574	129.668	-50.2165	-15.0593	115.248	-72.0407	-29.6409	96.9425	-93.204	-9.86012	139.528	-71.5185	-0.169825	120.257	-87.6865	-5.49088	105.052	-93.2843	18.9281	141.81	-35.7159	44.3627	143.837	-41.6543	69.6985	111.499	-20.9063	57.5143	
161	1.34167	74.502	-39.0931	59.8088	55.9506	-43.0096	32.3486	43.2553	-45.2197	3.93383	37.7741	-52.374	-13.2735	96.1344	-17.5066	-11.9916	92.2783	-19.8576	-42.5989	80.232	-37.3698	-67.3922	119.024	-25.0301	-20.5041	120.855	-33.2021	-47.9019	105.797	-52.9651	-74.2037	129.251	-52.4782	-14.859	118.421	-74.2707	-34.3192	101.678	-97.4188	-25.7913	138.077	-71.7344	-1.73887	124.398	-93.4567	-8.48768	105.125	-102.433	11.9771	136.035	-33.9382	38.3177	137.966	-38.5069	72.2955	107.498	-20.5622	55.301	
162	1.35	69.9832	-42.8113	54.1293	48.9151	-49.2621	31.7638	36.7801	-55.1535	7.17714	29.2977	-63.8685	-11.6643	90.7609	-26.9397	-15.4694	87.3345	-25.6753	-44.7486	77.2502	-31.8105	-68.9496	116.936	-31.8189	-23.9433	116.467	-34.799	-52.2325	111.566	-52.2687	-84.8664	125.717	-55.4688	-18.8209	120.669	-74.7014	-39.9779	104.907	-105.181	-37.4266	142.784	-73.7089	-1.24327	128.015	-95.5212	-14.0985	107.316	-110.55	1.81941	134.875	-37.6144	33.1466	135.645	-37.4375	66.1398	99.4672	-24.9762	45.8721	
163	1.35833	62.7112	-51.3698	53.051	45.2873	-61.3444	27.6857	31.4218	-71.2982	4.64281	21.2926	-81.2653	-11.5047	80.3521	-38.8364	-26	78.4924	-39.8291	-49.7088	75.1434	-43.7855	-78.0937	110.352	-41.9979	-27.3673	117.278	-47.5168	-55.2534	113.81	-57.2731	-85.1143	126.535	-64.6647	-21.7299	126.419	-85.7511	-42.3558	118.02	-113.248	-47.1891	140.47	-79.129	-4.68625	132.49	-101.175	-17.1297	114.007	-124.308	-8.27524	126.728	-39.8052	30.003	128.938	-37.603	58.6289	94.1107	-32.8726	43.9869	
164	1.36667	61.8412	-62.3562	47.5512	41.9313	-75.86	27.1952	26.549	-88.1313	3.22759	19.5891	-100.331	-8.73709	80.1653	-55.8639	-28.7773	71.2685	-58.494	-56.5995	68.9906	-61.9322	-77.7278	106.964	-58.3312	-34.4734	110.89	-64.6531	-60.5271	115.527	-74.8697	-91.1968	123.959	-78.08	-24.6837	125.889	-99.7926	-42.6717	120.413	-129.836	-49.2616	141.059	-87.4956	-5.07285	140.568	-113.01	-15.1515	121.343	-138.186	-10.807	124.556	-47.2819	24.5365	124.612	-42.7842	57.1706	89.3263	-41.8397	37.9495	
165	1.375	59.6952	-72.6647	44.9423	40.7429	-91.6996	24.5912	24.3272	-107.637	1.13282	20.7158	-122.677	-12.5095	74.1338	-74.2914	-31.7548	69.4821	-80.1978	-60.7017	65.8311	-86.8519	-81.0952	108.636	-75.7213	-34.3362	111.809	-86.4194	-64.7862	115.404	-99.5106	-91.9195	124.98	-93.1441	-25.0052	123.033	-114.074	-41.7573	123.112	-147.351	-43.4419	137.246	-100.888	-9.37667	138.648	-122.559	-16.0601	127.027	-150.944	-8.81832	118.253	-56.2232	21.8663	121.193	-50.9448	48.4274	85.7976	-52.2377	30.4845	
166	1.38333	58.3708	-84.5282	37.558	42.9986	-105.958	21.728	28.4735	-123.854	6.70376	27.0578	-140.898	-7.81436	76.9539	-92.6656	-35.6151	70.6906	-104.917	-61.7933	65.2503	-117.402	-81.4115	103.125	-93.5748	-40.8777	105.035	-109.372	-65.5017	107.371	-134.092	-89.6446	122.273	-107.431	-24.9482	126.016	-135.657	-37.1768	120.537	-164.411	-33.1239	135.98	-109.293	-5.66649	140.107	-136.974	-12.2712	124.708	-158.074	-5.49561	115.765	-69.4378	14.0266	118.152	-59.3789	42.0253	83.7684	-60.5515	24.486	
167	1.39167	55.0068	-88.7959	37.025	43.0816	-112.525	21.8194	32.6824	-137.199	0.514072	34.8247	-155.118	-6.89331	71.2992	-104.487	-38.3963	67.6175	-120.212	-58.8935	66.6226	-144.913	-77.4572	99.9121	-107.244	-41.4184	102.815	-128.094	-61.3152	103.994	-162.04	-77.1375	120.397	-119.52	-24.6386	119.077	-151.049	-33.9241	113.702	-176.426	-18.6677	137.293	-121.173	-5.9525	134.626	-146.66	-11.6051	119.701	-166.581	3.61497	117.127	-78.0193	10.8097	119.11	-63.2657	39.2283	85.7997	-66.362	19.3087	
168	1.4	54.2342	-87.1572	35.91	45.3956	-113.363	17.6237	38.889	-135.644	1.14553	43.3935	-155.762	-11.003	72.4981	-103.836	-38.1939	69.7313	-126.673	-62.696	64.1432	-151.517	-70.9449	99.0766	-109.44	-41.6292	98.3972	-134.348	-61.3634	94.9673	-170.579	-62.4343	119.442	-124.272	-25.9567	114.204	-158.048	-29.5669	98.9101	-175.998	-7.94129	135.607	-129.019	-10.0864	124.873	-152.649	-11.4212	109.186	-165.983	8.25918	119.007	-78.4253	9.80548	118.289	-66.3343	33.9089	87.6825	-67.0345	19.8323	
169	1.40833	56.4709	-79.4589	33.1122	41.6258	-103.875	13.0437	37.9632	-125.581	-5.20381	44.7948	-148.977	-20.4899	76.027	-94.55	-46.0964	67.1653	-112.837	-65.0639	58.6911	-141.017	-67.3971	96.9227	-100.016	-45.585	91.1727	-130.659	-64.5804	82.076	-164.006	-51.1395	112.922	-116.52	-29.8131	104.447	-149.223	-31.1608	88.8337	-159.812	-3.66922	129.895	-123.738	-15.4779	120.31	-145.958	-14.3979	96.7172	-148.3	9.799	120.726	-73.3614	6.18037	116.938	-62.3522	38.2629	87.8642	-60.7512	19.5663	
170	1.41667	58.417	-66.0785	28.945	39.4475	-85.3541	8.41263	36.684	-105.421	-17.6519	50.0324	-122.034	-26.9823	75.5289	-68.8558	-44.096	67.9313	-87.9079	-68.0622	55.7996	-121.996	-62.4968	97.8419	-80.9833	-48.3399	84.84	-110.536	-65.2529	75.044	-138.308	-40.9271	107.65	-97.3788	-34.704	99.5777	-126.16	-37.2321	85.0798	-135.682	-4.84617	124.05	-105.955	-20.27	107.566	-129.37	-18.026	94.5653	-125.191	10.9597	120.266	-61.76	6.57404	119.586	-52.6752	37.8458	90.6768	-47.1308	22.3781	
171	1.425	55.8256	-44.8073	29.9074	43.0143	-58.2375	6.78157	41.6947	-73.1426	-22.5923	53.7157	-89.0205	-36.3358	76.2737	-35.7863	-44.3316	67.2697	-54.7999	-69.7556	54.1661	-84.1709	-59.399	95.4595	-51.012	-51.6273	84.7049	-79.167	-65.5027	71.9369	-102.811	-36.9368	109.366	-70.3426	-36.3889	91.8331	-98.232	-39.9568	82.3805	-103.936	-6.44244	119.987	-81.9723	-27.1979	104.565	-102.872	-25.338	91.4084	-97.8187	6.60349	119.044	-39.7625	10.5679	121.803	-39.6047	39.4037	88.8313	-24.6228	26.5687	
172	1.43333	58.7531	-22.1076	33.7522	42.5806	-28.5989	7.00585	38.3326	-37.1856	-25.2601	58.3189	-50.8906	-40.5804	76.5208	2.17652	-35.089	63.811	-13.2241	-64.081	52.576	-43.8084	-52.1616	92.5561	-11.8735	-45.7443	77.2836	-37.8745	-63.1867	71.7543	-60.9244	-34.6009	104.92	-35.8952	-38.2658	92.3313	-61.4343	-43.8421	78.9775	-67.7131	-11.9726	121.149	-50.8493	-25.6438	99.8251	-72.5973	-26.4296	90.7771	-66.5272	2.85424	120.462	-15.6572	14.4612	120.795	-20.9485	44.3682	94.093	-4.30517	34.2436	
